<svg xmlns="http://www.w3.org/2000/svg" viewBox="0 0 500 500"><path fill="#3C9BB2" d="M308.927 62.339c.574.217 1.148.434 1.951.76.306.185.395.245.495.29.51.239 1.02.478 1.619 1.056.71.567 1.331.795 1.95 1.023 0 0 .102.028.144.23.516.389.991.576 1.466.763 7.143 3.746 11.024 9.92 13.037 17.839.129.763.242 1.182.356 1.6.026.386.053.771.088 1.537.169 1.443.33 2.503.49 3.563-.029 1.566-.058 3.133-.165 5-.053.598-.031.896-.007 1.195-1.711 6.79-3.422 13.581-5.295 20.653-.17 1.142-.179 2.002-.188 2.86.038.242.076.483.144 1.008.127.543.225.802.323 1.061.053.555.108 1.111.19 1.983.143.569.256.82.37 1.073 2.043 12.17 4.085 24.341 6.175 36.839.161.584.276.839.39 1.095.185 2.914.369 5.828.578 8.976-.19.721-.406 1.207-.956 1.725-2.901-1.345-5.467-2.721-7.898-4.025-.394-.877-.779-1.733-1.218-2.801-.194-1.644-.335-3.077-.386-4.66-.236-1.543-.561-2.934-.99-4.52-.138-.778-.173-1.36-.1-2.081-.182-1.214-.471-2.29-.834-3.552-.159-1.109-.243-2.033-.214-3.091-.217-1.389-.547-2.642-.972-4.094-.111-.774-.126-1.351-.036-2.059-.184-1.208-.474-2.286-.871-3.563-.161-.947-.215-1.695-.179-2.526-.013-.348-.117-.612-.28-1.008-.048-.325-.037-.517-.009-.875-.152-.626-.322-1.085-.596-1.739-.14-.777-.175-1.359-.104-2.08-.193-1.218-.493-2.297-.863-3.553-.157-.928-.243-1.678-.223-2.539-.164-.873-.434-1.633-.768-2.56-.069-.63-.071-1.095-.049-1.728-.183-.507-.39-.846-.716-1.344-.179-.816-.238-1.473-.283-2.283-.15-.479-.315-.806-.603-1.336-.184-.511-.243-.819-.321-1.174-.017-.045-.024-.143-.092-.263-.046-.3-.025-.479-.012-.798-.104-.298-.199-.454-.388-.78-.306-1.159-.52-2.149-.634-3.315 2.711-2.468 2.676-2.985-.429-6.717-.334.448-.649.87-.976 1.308-.509-.54-.939-.994-1.455-1.495-.085-.045-.161-.224-.168-.212-.006.012-.004.028-.111-.145-.396-1.057-.688-1.938-.965-3.017-.509-1.189-1.031-2.181-1.666-3.305-.197-.46-.281-.789-.392-1.282-.18-.319-.332-.473-.464-.626.022 0-.003.034.011-.161.51-1.221 1.005-2.246 1.557-3.389-1.873-1.679-3.612-3.563-6.694-2.708-1.982-2.036-3.813-3.979-5.629-6.145.017-2.992-2.8-5.737-6.107-6.141-.259-.254-.384-.423-.506-.781.486-4.059 2.925-5.997 6.688-6.724 5.072 5.61 9.92 11.206 14.903 16.681 3.914 4.3 6.695 9.2 8.461 14.708.399 1.245.765 2.502 1.314 4.304.478-.964.748-1.307.824-1.688 2.022-10.023 2.46-19.7-6.122-27.542-.381-.39-.749-.599-1.072-.818.045-.009-.032.041.018-.148 1.157-2.328.796-3.536-1.027-3.493-1.524.037-3.042.339-4.743.509-1.247-.534-2.312-1.056-3.393-1.725-.342-.233-.668-.318-1.148-.394-.402-.142-.652-.292-.91-.594-.338-.241-.666-.329-1.151-.412-.396-.164-.634-.335-.903-.683-.661-.669-1.294-1.158-1.986-1.692 1.01-2.112.551-3.452-2.109-3.992 2.563-.655 4.96-1.001 7.343-.914 1.471.053 2.917.767 4.374 1.184 0 0 .053-.019.084.152.366.22.7.268 1.033.315Z" style="stroke-width:1" transform="translate(-11.789512 -8.433677) scale(1.031762)"/><path fill="#3B9DB7" d="M323.02 167.853c.385.857.77 1.713 1.164 2.59 2.431 1.304 4.997 2.68 7.752 4.093.094.384-.001.732-.15 1.253-1.233 1.004-2.413 1.835-3.759 2.481-1.337-1.62-2.498-3.064-3.687-4.484-1.469-1.757-5.785-2.121-6.546-.187-1.401 3.56-4.579 3.372-7.747 4.89 1.154-2.683 2.063-4.797 3.185-6.925 2.396.05 4.583.24 6.758.143 2.35-.106 3.548-1.368 3.03-3.854Z" style="stroke-width:1" transform="translate(-11.789512 -8.433677) scale(1.031762)"/><path fill="#3C9BB2" d="M150.145 21.389c-.553-.384-1.106-.773-1.829-1.178-.793-.312-1.419-.599-2.227-.973-.248-.174-.311-.272-.374-.363-.027.158-.055.322-.082.486-.919-.881-1.837-1.762-2.92-2.91-.365-1.444-.564-2.616-.763-3.79 1.168-1.055 2.335-2.115 3.906-3.139 1.553.21 2.7.384 3.848.558.085.015.169.026.381.298.702.568 1.275.875 1.849 1.188.367.205.733.414 1.243.891.491.405.838.543 1.185.676 0 0 .243.076.365.332 2.509 1.599 4.895 2.946 7.282 4.288.085.025.169.051.388.322 1.045.728 1.956 1.204 2.866 1.68.191.072.384.138.723.456.468.374.79.502 1.111.63.088.021.175.042.409.302 2.002 1.265 3.857 2.28 5.713 3.294.095.035.19.071.44.358.807.558 1.458.871 2.108 1.183.437.17.874.338 1.473.804.891.589 1.621.881 2.35 1.174.681.26 1.362.517 2.255 1.034 3.143 1.214 6.048 2.264 9.015 3.099 1.544.435 3.195.497 4.797.727.255-.005.511-.005 1.015.236 2.039.44 3.83.64 5.619.84.265.01.528.021 1.062.271 2.227.384 4.185.538 6.143.686.581.021 1.162.041 2.026.308 2.198.496 4.115.742 6.031.983.468-.016.936-.031 1.704.159 1.9.327 3.503.445 5.105.569.574.015 1.146.03 1.995.291 3.781.589 7.289.928 10.795 1.271.745.02 1.49.041 2.527.302 4.451.619 8.609.993 12.767 1.367.267-.023.534-.047 1.044.138.847.248 1.453.288 2.058.327.263-.007.527-.014 1.045.209.956.439 1.657.647 2.244.822-.244.815-.475 1.588-.706 2.361.838-.177 1.69-.307 2.511-.541 1.169-.332 2.316-.74 3.472-1.116.184.022.367.045.701.321 1.585.911 3.019 1.569 4.454 2.227.177.056.355.111.669.422 1.841 1.408 3.549 2.56 5.255 3.711 0 0-.047.034-.052.217-.017 1.423.088 2.68-.093 3.893-.084.562-.718 1.477-1.114 1.483-2.065.03-4.133-.183-6.328-.304-.328-.138-.528-.281-.789-.596-.273-.282-.483-.391-.862-.479-.473-.107-.778-.236-1.137-.517-.766-.441-1.479-.731-2.374-1.011-.506-.134-.83-.279-1.185-.53-.324-.162-.617-.218-1.105-.257-.44-.078-.683-.174-1.008-.407-1.138-.377-2.192-.617-3.406-.812-.479-.018-.797-.079-1.184-.25-.348-.063-.629-.019-1.108.065-.593-.03-.987-.098-1.434-.323-.986-.259-1.918-.358-3.054-.407-.471-.027-.735-.105-1.081-.309-.859-.099-1.638-.071-2.604-.012-.42-.045-.657-.119-.953-.347-1.011-.201-1.96-.249-3.106-.251-1.127-.091-2.058-.229-3.118-.503-1.709-.285-3.29-.433-5.065-.539-1.131-.088-2.066-.217-3.126-.485-1.699-.299-3.273-.461-5.072-.558-.977-.047-1.731-.157-2.544-.378-.507-.099-.954-.086-1.611-.04-.606-.077-1.006-.189-1.493-.445-1.886-.288-3.685-.432-5.715-.537-1.296-.125-2.36-.285-3.512-.57-1.37-.254-2.649-.385-4.157-.476-1.124-.098-2.021-.236-2.999-.502-1.203-.259-2.326-.39-3.671-.483-.945-.097-1.668-.232-2.472-.506-.62-.221-1.159-.301-1.826-.34-.299-.008-.468-.059-.703-.222-.351-.076-.636-.04-1.139.023-.773-.107-1.329-.242-1.957-.505-1.022-.287-1.972-.445-3.117-.57-.94-.197-1.686-.429-2.461-.777-.334-.159-.638-.205-1.139-.231-.423-.087-.654-.194-.923-.405-.331-.122-.623-.148-1.1-.158-1.108-.363-2.033-.732-3.006-1.26-1.633-.799-3.218-1.444-4.969-2.111-.351-.153-.535-.281-.756-.44-.04-.025-.196-.138-.387-.205-.295-.153-.397-.24-.56-.45-.394-.231-.727-.343-1.23-.502-1.936-1.065-3.701-2.079-5.47-3.083-3.749-2.137-7.501-4.261-11.25-6.387-.546-.4-1.091-.804-1.892-1.358-1.047-.578-1.839-1.008-2.631-1.434Zm135.649 32.458c.263.013.526.027 1.036.282 3.178 1.283 6.107 2.326 9.481 3.528-3.843 3.505-7.384 6.848-11.076 10.015-.744.636-2.061.604-3.259.803-1.721-1.865-3.297-3.654-4.867-5.648-.114-.609-.406-1.061-.315-1.414.436-1.706.748-3.512 1.589-5.011.338-.603 2.033-.301 2.899-.787.953-.535 1.662-1.503 2.477-2.283.258.023.516.045.981.265.489.215.771.233 1.054.25Z" style="stroke-width:1" transform="translate(-11.789512 -8.433677) scale(1.031762)"/><path fill="#3B9DB7" d="M282.122 68.552c1.052-.276 2.369-.244 3.113-.88 3.692-3.167 7.233-6.51 11.076-10.015-3.374-1.202-6.303-2.245-9.314-3.418 5.598 1.795 11.284 3.696 16.949 5.661 1.274.444 2.471 1.11 3.784 1.822-1.377-.267-2.823-.981-4.294-1.034-2.383-.087-4.78.259-7.343.914 2.66.54 3.119 1.88 2.109 3.992.692.534 1.325 1.023 1.795 1.676-2.354-.582-4.546-1.328-6.835-2.17-.226-.078-.356-.062-.484-.044.078.165.156.328.256.662.694 1.045 1.366 1.922 2.038 2.798-3.598.792-6.037 2.73-6.676 6.733-2.161-2.144-4.168-4.421-6.174-6.697Zm1.515-15.354c-.693.914-1.402 1.882-2.355 2.417-.866.486-2.561.184-2.899.787-.841 1.499-1.153 3.305-1.589 5.011-.091.353.201.805.165 1.325-3.176-2.749-6.201-5.612-9.225-8.475 2.067.127 4.135.34 6.2.31.396-.006 1.03-.921 1.114-1.483.181-1.213.076-2.47.104-3.919 2.798 1.157 5.58 2.525 8.485 4.027m-6.671 1.363c-.201-.003-.401-.005-.602-.007-.001.083-.008.238-.002.239.2.015.401.016.604-.232Zm-81.444-21.873c-1.467-.102-3.118-.164-4.662-.599-2.967-.835-5.872-1.885-8.875-2.982 4.419 1.061 8.91 2.26 13.537 3.581Zm68.459 9.473c-1.023.514-2.17.922-3.339 1.254-.821.234-1.673.364-2.511.541.231-.773.462-1.546.706-2.361-.587-.175-1.288-.383-2.066-.73 2.308.293 4.692.725 7.21 1.296Zm-11.664-2.21c-4.029-.226-8.187-.6-12.435-1.122 4.042.225 8.174.599 12.435 1.122Zm-15.313-1.649c-3.358-.215-6.866-.554-10.452-1.05 3.382.205 6.842.563 10.452 1.05Zm-75.069-20.703c-2.313-1.188-4.699-2.535-7.131-4.031 2.323 1.188 4.69 2.536 7.131 4.031Zm11.23 6.679c-1.802-.855-3.657-1.87-5.557-3.042 1.804.854 3.653 1.869 5.557 3.042Zm101.971 24.543c-1.649-.992-3.357-2.144-5.102-3.448 1.656.995 3.35 2.141 5.102 3.448ZM209.34 34.737c-1.802-.036-3.76-.19-5.813-.477 1.822.031 3.738.2 5.813.477Zm8.078 1.259c-1.781-.097-3.698-.343-5.704-.732 1.797.102 3.683.348 5.704.732Zm-15.263-2.238c-1.653-.066-3.444-.266-5.311-.62 1.672.062 3.424.272 5.311.62Zm22.055 3.002c-1.45-.016-3.053-.134-4.787-.394 1.457 0 3.046.143 4.787.394Zm44.957 7.936c-1.333-.507-2.767-1.165-4.245-1.985 1.352.504 2.749 1.169 4.245 1.985ZM149.622 9.926c-1.066-.02-2.213-.194-3.593-.389 1.017.067 2.265.154 3.593.389Zm15.542 9.686c-.811-.333-1.722-.809-2.676-1.44.829.329 1.703.81 2.676 1.44Zm90.282 20.808c-.503.105-1.109.065-1.77-.101.518-.098 1.093-.07 1.77.101Zm-75.957-12.603c-.628-.154-1.358-.446-2.14-.896.645.153 1.343.456 2.14.896ZM175.7 25.83c-.583-.164-1.234-.477-1.936-.928.589.17 1.229.477 1.936.928Zm-23.861-14.403c-.479-.174-1.052-.481-1.659-.962.499.163 1.032.496 1.659.962Zm163.067 53.877c-.583-.064-1.204-.292-1.861-.692.583.061 1.203.295 1.861.692Zm1.605.996c-.434-.026-.909-.213-1.44-.55.429.029.915.209 1.44.55Zm-30.799-12.567c-.201.097-.483.079-.807-.03.214-.089.47-.086.807.03Zm23.153 8.459c-.271.1-.605.052-.967-.139.283-.099.593-.053.967.139ZM167.052 20.708c-.276.005-.598-.123-.97-.374.273-.005.599.118.97.374ZM154.301 13c-.286 0-.633-.138-1.029-.41.291 0 .63.138 1.029.41Zm157.074 50.278c-.102.066-.191.006-.317-.136-.049-.065.163-.136.163-.136s.155.16.154.272Z" style="stroke-width:1" transform="translate(-11.789512 -8.433677) scale(1.031762)"/><path fill="#84B14C" d="M391.459 282.559c-.01 1.24-.01 2.479-.11 4.1-.45 4.533-.81 8.685-1.18 12.838-.07.398-.13.798-.31 1.537-.32 3.128-.54 5.918-.76 8.707-.05.244-.1.488-.25 1.047-.32 2.763-.54 5.211-.76 7.659-.06.239-.12.476-.29 1.04-.28 2.602-.47 4.878-.65 7.154-.1.721-.21 1.442-.4 2.534-.28 2.817-.48 5.264-.68 7.71-.08.394-.16.788-.33 1.535-.66 5.252-1.3 10.144-1.76 15.053-.42 4.549-.64 9.119-.94 13.679-.09.152-.11.311-.16.718-.49 2.986-.96 5.724-1.268 8.481-.627 5.62-1.167 11.25-1.744 16.876-.074.388-.149.776-.302 1.526-.275 2.805-.47 5.249-.666 7.693-.088.389-.176.779-.344 1.528-.276 2.803-.471 5.246-.666 7.69-.093.555-.185 1.109-.369 2.028-.289 2.811-.488 5.257-.686 7.704-.063.239-.125.48-.283 1.046-.269 2.77-.443 5.214-.616 7.657-.115.724-.229 1.447-.435 2.545-.265 3-.439 5.623-.613 8.246-.099.58-.197 1.16-.388 2.049-.274 2.426-.456 4.542-.639 6.659-.096.581-.192 1.163-.394 2.047-.649 5.828-1.191 11.352-1.822 17.039-.088.411-.088.657-.211 1.031-.137.709-.151 1.292-.255 2.038-.111.407-.134.652-.296 1.01-.67 1.734-1.2 3.355-1.84 5.113-.336.66-.565 1.184-.929 1.81-.415.583-.696 1.064-1.12 1.63-1.245 1.39-2.345 2.695-3.445 4.001 0 0-.191.014-.414.098-.498.379-.773.677-1.049.974-.568.354-1.137.707-1.968 1.176-.563.359-.862.604-1.161.849-.912.383-1.825.765-2.859 1.258-.504.176-.887.241-1.606.362-.555.044-.776.035-1.119-.116-1.975-.06-3.827.092-5.679.093-41.023.014-82.046.051-123.069-.076-2.866-.008-5.729-1.244-8.591-1.916-.557-.13-1.108-.287-1.66-.431-.682-.349-1.365-.696-2.165-1.35-1.693-1.687-3.269-3.07-4.974-4.577-.329-.424-.528-.723-.729-1.196-.592-1.034-1.18-1.893-1.862-2.913-.118-.279-.144-.399-.176-.721-.755-2.572-1.507-4.942-2.347-7.511-.12-.923-.15-1.647-.043-2.516-.196-2.434-.528-4.723-.949-7.219-.121-1.101-.152-1.995-.052-3.04-.255-2.433-.641-4.716-1.088-7.171-.05-.411-.037-.652.099-1.048-.245-4.093-.562-8.036-1.014-11.964-.146-1.261-.649-2.481-1.066-3.906-.085-.584-.092-.984.014-1.506-.053-.883-.219-1.643-.476-2.598-.108-.761-.125-1.327-.02-2.048-.267-2.77-.656-5.386-1.111-8.172-.055-.411-.044-.652.083-1.034-.081-1.231-.279-2.318-.546-3.581-.053-.423-.038-.67.088-1.081-.27-2.934-.649-5.705-1.105-8.672-.097-.755-.116-1.314-.012-2.003-.055-1.062-.231-1.992-.489-3.111-.076-.594-.073-.997.043-1.547-.122-1.226-.355-2.305-.655-3.582-.071-.753-.075-1.306.032-1.947-.01-.539-.132-.991-.344-1.641-.101-.774-.111-1.35-.022-2.075-.129-1.22-.359-2.289-.662-3.555-.086-.75-.099-1.305-.013-1.924-.001-.36-.1-.657-.289-1.155-.098-.784-.108-1.365-.023-2.115-.474-6.143-1.004-12.121-1.644-18.088-.116-1.077-.684-2.106-1.107-3.357-.071-.754-.079-1.309.048-2.012-.242-2.435-.616-4.721-1.06-7.205-.081-.753-.092-1.309.03-2.007-.244-2.604-.62-5.065-1.069-7.723-.078-.754-.082-1.311.048-2.015-.251-2.776-.635-5.404-1.08-8.222-.055-.584-.05-.98.084-1.53-.205-2.432-.538-4.709-.956-7.192-.099-.943-.114-1.68-.02-2.561-.096-1.223-.303-2.302-.586-3.577-.093-.755-.108-1.314.008-2.024-.237-2.434-.607-4.717-1.05-7.186-.076-.586-.081-.984.042-1.533-.096-2.977-.26-5.809-.574-8.624-.11-.991-.587-1.941-.967-3.111-.062-.621-.051-1.042.068-1.62-.128-1.567-.366-2.976-.665-4.585 0-.742.059-1.284.272-1.877.613-.954 1.074-1.856 1.583-2.89.355-.323.662-.511 1.216-.684 39.485.019 78.721.023 117.957.027 2.218 0 4.446.125 6.648-.065.802-.069 1.54-.89 2.306-1.367.173-.422.347-.846.664-1.557.036-.905-.07-1.521-.178-2.138-.014-.232-.029-.464-.041-.979.04-.371.079-.46.279-.579.025-.526-.113-1.018-.295-1.723-.045-1.079-.047-1.945.107-2.927.051-.921-.053-1.724-.183-2.74-.077-.917-.129-1.621-.18-2.326.092-.224.185-.447.522-.885.728-1.322 1.367-2.398 1.621-3.557.106-.487-.606-1.152-.946-1.736.447-4.681 2.472-8.723 5.424-12.639 1.154-.062 1.952-.019 3.073.041-1.284 2.683-.153 4.401 1.389 6.158-.219.565-.424.959-.809 1.397-.314.47-.449.898-.572 1.482-.093.449-.198.741-.476 1.076-.834 1.66-1.289 3.408-2.209 4.863-1.198 1.894-1.729 6.067-.309 7.744 2.436 2.877 3.846 5.883 2.413 9.833-.273.639-.544 1.113-.947 1.617-.028.373.078.715.23 1.053.048-.006.046.091.12.277 4.394.26 8.714.335 13.034.388.088.001.179-.264.467-.492.915-.132 1.633-.177 2.469-.083 2.161-.018 4.27-.014 5.656-2.206 1.732-1.273 3.332-2.429 5.141-3.577 1.961-.235 2.981.589 3.77 2.12.564 1.095 1.513 1.992 2.521 2.961 2.606-.02 4.981-.024 7.497.139.463.251.786.407 1.109.408 7.886.015 15.773.027 23.656-.014.61-.003 1.21-.403 1.81-.618.43.123.87.246 1.44.627.24.393.37.487.53.541.15.106.31.213.58.572.42.822.73 1.39 1.05 1.957m-127.941 64.973c-1.67 3.065-3.497 6.057-4.965 9.215-1.542 3.313-.367 6.459 2.561 7.8 2.947 1.351 5.486.231 7.26-3.162 3.63-6.949 7.269-13.895 10.921-20.833 3.02-5.736 9.704-6.207 13.133-.761 2.766 4.393 5.162 9.019 7.683 13.565.379.684.551 1.485.881 2.401-1.988.215-3.592.357-5.187.57-3.2.425-4.664 1.755-4.804 4.3-.143 2.598 1.122 4.041 4.322 4.754 5.405 1.203 10.817 2.375 16.237 3.511 2.923.612 4.336-.119 5.373-2.936 2.029-5.519 3.994-11.062 5.896-16.624 1.053-3.084.425-4.804-1.873-5.845-2.482-1.123-4.688-.395-6.309 2.127-.939 1.46-1.824 2.955-2.882 4.677-.647-.763-1.093-1.152-1.37-1.639-2.108-3.701-4.235-7.394-6.256-11.142-2.269-4.208-5.038-7.946-9.447-10.085-9.613-4.665-19.442-1.308-25.215 8.682-2.085 3.606-3.843 7.401-5.959 11.425m68.229 59.039c1.533 2.598 3.207 5.239 1.443 8.331-1.817 3.185-4.93 3.503-8.225 3.444-4.775-.084-9.553-.012-14.33-.007-1.058.001-2.114 0-3.784 0 1.371-2.008 2.395-3.428 3.334-4.903 1.461-2.297.867-5.528-1.256-7.137-1.83-1.386-4.058-.995-6.082 1.19-3.706 3.998-7.413 7.997-11.024 12.079-2.31 2.612-2.273 4.067-.034 6.73 3.126 3.717 6.286 7.406 9.488 11.06.834.95 1.782 1.859 2.835 2.55 2.858 1.876 6.418-.002 6.28-3.435-.06-1.513-.941-3.012-1.539-4.48-.291-.716-.787-1.35-1.468-2.481 1.428 0 2.259.007 3.089-.001 5.202-.044 10.407-.008 15.608-.152 16.182-.451 23.524-13.973 15.169-27.86-1.317-2.19-2.613-4.392-3.929-6.582-2.502-4.159-4.978-8.334-7.526-12.464-2.371-3.841-7.255-3.98-9.379-.252-1.276 2.241-.719 4.487.519 6.558 3.498 5.855 7.047 11.679 10.811 17.812m-95.556-9.014c-.56.954-1.114 1.911-1.679 2.862-2.899 4.878-5.288 9.733-4.508 15.84.866 6.784 8.308 14.769 15.885 14.433 8.607-.382 17.231-.382 25.844-.676 1.065-.035 2.323-.617 3.111-1.353 1.849-1.724 1.779-3.986.912-6.167-.834-2.101-2.624-2.73-4.771-2.709-7.938.08-15.877.172-23.816.165-5.319-.005-7.904-3.724-6.159-8.77.386-1.117.995-2.17 1.6-3.195 1.386-2.348 2.816-4.671 4.258-6.986 1.561-2.503 3.155-4.984 4.966-7.842.857 1.324 1.44 2.232 2.028 3.137.604.928 1.142 1.91 1.834 2.769 1.49 1.849 4.175 2.489 5.939 1.384 2.039-1.275 2.397-3.092 1.661-5.34-1.806-5.51-3.48-11.063-5.266-16.58-.896-2.769-2.52-3.8-5.493-3.256-5.699 1.044-11.378 2.212-17.048 3.411-2.733.58-3.997 2.227-3.804 4.618.198 2.442 1.922 4.02 4.662 4.146 1.661.076 3.328.014 4.992.014.171.25.341.5.511.75-1.828 3.003-3.658 6.008-5.659 9.345Z" style="stroke-width:1" transform="translate(-11.789512 -8.433677) scale(1.031762)"/><path fill="#8CB65A" d="M214.478 487.736c.447-.004.998.153 1.555.283 2.862.672 5.725 1.908 8.591 1.916 41.023.127 82.046.09 123.069.076 1.852-.001 3.704-.153 5.658.014.101.251.033.461.033.461-1.551.25-3.102.498-5.053.787-1.108.075-1.82.109-2.531.143-5.646-.02-11.291-.04-17.377-.059-.989.027-1.538.05-2.087.074-2.402-.027-4.805-.054-7.68-.08-3.731.023-6.988.047-10.245.068-2.744-.026-5.488-.053-8.671-.078-.988.027-1.537.051-2.085.075-.228-.029-.456-.058-1.088-.083-2.468.029-4.532.054-6.596.079-.386-.029-.771-.058-1.535-.083-.765.029-1.15.055-1.535.081-.548-.028-1.097-.057-2.084-.082-5.576.035-10.711.066-15.846.097-.385-.029-.769-.057-1.571-.084-1.803.033-3.188.063-4.573.093-2.403-.033-4.806-.064-7.674-.095-2.022.027-3.578.054-5.133.08-1.553-.025-3.106-.051-5.058-.073-.628.029-.857.053-1.085.077-4.451-.029-8.902-.06-13.825-.088-3.729-.315-6.985-.63-10.241-.946-.266-.072-.533-.144-.932-.21-1.52-.761-2.908-1.528-4.401-2.443Zm-6.695-5.105c-.256-.29-.37-.467-.452-.744 1.608 1.281 3.184 2.664 4.8 4.206-1.374-1.009-2.79-2.18-4.348-3.462Z" style="stroke-width:1" transform="translate(-11.789512 -8.433677) scale(1.031762)"/><path fill="#3C9BB2" d="M197.924 165.212c-.962-.97-1.923-1.94-3.11-3.128-1.526-1.383-2.826-2.547-4.126-3.711-.206-.261-.413-.521-.833-.977-1.916-1.777-3.616-3.358-5.318-4.94-1.182-1.175-2.366-2.35-3.76-3.728-.512-.466-.814-.729-1.116-.993-3.017-3.651-6.034-7.303-9.209-11.253-.789-1.394-1.419-2.49-2.05-3.585-.468-1.082-.935-2.164-1.529-3.542-.307-.536-.49-.778-.672-1.02-.446-1.103-.893-2.207-1.49-3.613-1.316-2.911-2.48-5.521-3.644-8.131-1.225-3.365-2.449-6.729-3.918-10.354-3.666-2.259-7.086-4.261-10.507-6.262-.164-.129-.329-.257-.597-.498-.104-.11-.094-.122-.094-.122-.563-.303-1.128-.608-1.852-1.233-2.231-1.24-4.304-2.156-6.484-3.11-.107-.038-.211-.24-.296-.376-1.854-.924-3.624-1.711-5.461-2.481-.068.016-.15-.098-.223-.249-1.027-.62-1.98-1.09-3.089-1.541-.405-.143-.655-.304-.914-.662-.383-1.133-.758-2.067-1.132-3.001-.668.452-1.336.905-2.2 1.333-.898-.366-1.601-.707-2.325-1.199-.608-.515-1.196-.88-1.941-1.341 2.617-2.441 4.733-4.414 6.985-6.368.289.119.441.221.633.477 1.266 1.492 2.49 2.829 3.676 4.124.832-.377 1.492-.675 2.319-.958.661.27 1.155.525 1.693.941 1.134.642 2.223 1.124 3.477 1.611.645.267 1.123.527 1.652.95.45.299.851.438 1.418.582.645.269 1.124.532 1.646.953 1.653 1.233 3.208 2.406 4.893 3.348 1.093.613 2.375.887 3.738 1.305.634.274 1.103.556 1.614.993 2.28 1.498 4.514 2.84 6.911 4.228 1.738 2.011 3.315 3.977 4.88 6.105.22.464.451.766.78 1.205.155.467.212.795.256 1.305.341.835.696 1.487 1.185 2.288 1.402 3.402 2.669 6.653 3.925 10.061.201.458.414.76.754 1.206.857 1.708 1.586 3.271 2.31 4.996.258.445.522.727.901 1.145.8 1.376 1.481 2.614 2.164 4.012.262.43.524.702.879 1.051.093.078.15.315.149.477.271.435.544.708.944 1.104.966 1.366 1.804 2.61 2.641 4.031.454.624.91 1.07 1.522 1.594 1.621 1.759 3.085 3.444 4.589 5.315.536 1.605.621 3.55 1.617 4.323 1.771 1.377 4.093 2.044 6.344 3.057 1.029.906 1.898 1.765 2.794 2.794.665.942 1.264 1.751 1.952 2.476 1.658 1.743 3.287 3.178 3.346 6.131.073 3.711 2.109 4.977 5.88 4.987.844.003 1.689.022 2.694.1 1.983 2.015 3.806 3.965 5.635 6.133.382 2.58.755 4.942 1.091 7.066-1.814.323-3.627.645-5.44.968-.337-.277-.674-.556-1.168-.908-2.08-1.956-4.004-3.836-6.151-5.952-1.435-1.592-2.648-2.95-3.883-4.419-.106-.257-.234-.328-.474-.483-1.245-1.275-2.418-2.389-3.617-3.616-.114-.253-.241-.322-.472-.449-.306-.278-.55-.425-.792-.572Z" style="stroke-width:1" transform="translate(-11.789512 -8.433677) scale(1.031762)"/><path fill="#3B9DB7" d="M245.991 251.838c-1.706-5.723-2.086-11.619-2.088-17.532-.002-3.141.411-6.284.712-9.734.094-.494.113-.679.13-.863.254-.887.507-1.773.902-2.974.526-1.277.911-2.239 1.296-3.2 1.553-2.6 3.105-5.2 4.764-8.069.046-.57-.015-.872-.075-1.173-2.082-2.688-4.164-5.374-6.434-8.333-.877-1.402-1.565-2.531-2.252-3.66-.546-2.188-1.092-4.376-1.63-6.744.009-.182.142-.144.36-.159 1.11-.039 2-.064 2.989.08.432 1.581.765 2.995.895 4.438-.592.643-.982 1.256-1.371 1.869 1.014.394 2.028.789 3.176 1.272 1.601 1.857 2.983 3.707 4.553 5.377 4.295 4.567 4.571 6.784 1.035 11.863-3.825 5.497-5.939 11.52-5.625 18.239.214 4.593.357 9.24 1.202 13.737.793 4.234 2.348 8.345 3.803 12.426.603 1.696 1.896 3.296 4.038 2.868 2.536-.506 5.002-1.37 8.099-2.249-2.577-2.082-4.631-3.691-6.624-5.372-.944-.796-2.362-1.68-1.178-3.113 1.152-1.394 2.231-.222 3.29.506 3.721 2.555 7.347 5.283 11.251 7.525 4.995 2.87 11.33 1.903 15.316-2.225 3.25-3.367 6.149-7.07 9.335-10.503.572-.617 1.783-.641 2.698-.94-.072.974.204 2.187-.275 2.881-1.914 2.773-4.063 5.386-6.34 8.338 1.563.251 2.791.524 4.032.634 5.835.518 6.88-.075 7.395-5.907.485-5.487.603-11.05.315-16.551-.465-8.892-4.458-16.346-10.489-22.758-3.259-3.465-3.471-5.234-.959-9.268.541-.868 1.138-1.701 1.682-2.569 5.614-8.954 5.007-19.896-1.539-28.234-3.083-3.926-7.091-6.594-11.575-8.633-3.324-1.513-5.749-3.691-5.529-7.832 1.23-.312 2.328-.504 3.417-.495.472 1.411.601 3.133 1.493 3.747 3.811 2.621 7.848 4.916 11.874 7.484 2.225 3.155 4.377 6.156 6.53 9.158.849 4.065 1.697 8.129 2.472 12.549-.027.792.019 1.23.066 1.666-1.529 4.582-3.057 9.164-4.587 13.744-.054.16-.112.324-.199.465-2.617 4.237-2.58 4.2.812 7.716 5.009 5.194 7.664 11.56 9.195 18.517 1.617 7.339 1.387 14.689.384 22.398-.112.613-.128.897-.145 1.18-1.695 6.228-3.701 7.959-10.023 7.025-4.67-.69-8.579-.378-12.846 2.123-4.446 2.605-9.579 2.221-14.31-.479-.729-.417-1.973-.299-2.851-.023-2.353.742-4.637 1.703-7.272 2.623-.583.164-.841.282-1.098.399-6.459.718-9.084-2.903-10.495-8.222-.659-1.902-1.181-3.467-1.702-5.033Z" style="stroke-width:1" transform="translate(-11.789512 -8.433677) scale(1.031762)"/><path fill="#8CB65A" d="M353.555 278.963c-.776-.985-1.725-1.882-2.289-2.977-.789-1.531-1.809-2.355-3.705-2.281 1.969-3.552 4.279-6.83 6.157-10.337 4.796-8.957 6.91-18.845 9.48-28.559.639-2.412.997-4.897 1.623-8.056-16.752 3.723-31.82 8.852-41.522 23.571-1.553-1.587-2.684-3.305-1.4-5.988-1.121-.06-1.919-.103-2.923-.135 1.707-4.304 5.122-7.367 8.774-10.046 8.964-6.577 19.029-10.784 30.241-13.11.609-.147.872-.271 1.135-.394 1.046-.215 2.092-.431 3.496-.655.776-.142 1.197-.276 1.618-.411.421-.02.844-.036 1.266-.061 6.141-.348 7.064.561 6.782 7.101-.069.615-.053.892-.037 1.17-1.668 7.329-3.186 14.696-5.061 21.972-1.133 4.396-2.747 8.676-4.271 12.963-1.982 5.576-5.13 10.472-9.192 15.155-.15.54-.16.81-.172 1.078Z" style="stroke-width:1" transform="translate(-11.789512 -8.433677) scale(1.031762)"/><path fill="#3C9BB2" d="M300.729 173.489c-.24-.16-.481-.32-.925-.694-1.191-1.456-2.177-2.699-3.168-4.123-.487-.745-.969-1.31-1.485-1.881-.034-.005-.011-.069-.028-.236-.344-.538-.671-.907-1.113-1.28-.116-.005-.347-.016-.364-.191.004-.406.025-.639.147-.989-.472-1.213-1.046-2.311-1.73-3.563-1.28-4.578-2.647-8.962-3.573-13.437-1.737-8.387-2.577-17.061-8.784-23.958-.345-.399-.67-.633-.998-.866-.003.001-.001-.005 0-.21.63-4.77 1.485-5.824 5.064-6.419.025-.006.026.046.058.2.356.37.678.586 1.011.798.011-.003.003.018.023.193 1.318 1.417 2.614 2.66 4 3.966.087.062.146.269.138.446.423.632.854 1.087 1.415 1.67.646 1.312 1.163 2.496 1.673 3.896.853 2.558 1.716 4.899 2.694 7.396.137.409.159.663.095.986.031.346.147.623.366 1.067.12.427.137.685.082 1.016.043.336.158.598.387 1.024.145.426.175.689.124 1.038.034.344.149.599.335 1.021.156.758.242 1.349.216 2.065.198 1.216.507 2.305.92 3.579.12.605.136 1.025.063 1.543.073.517.234.934.497 1.519.11.423.116.68.028 1.038.087.521.268.941.544 1.521.117.407.136.653.057.978.084.357.267.635.548 1.07.311.987.525 1.816.724 2.827.355.833.723 1.483 1.22 2.265.533 1 .938 1.869 1.336 2.93.593.988 1.197 1.782 1.937 2.693 1.007 1.213 1.879 2.313 2.595 3.503-2.147 1.928-4.138 3.763-6.129 5.599Z" style="stroke-width:1" transform="translate(-11.789512 -8.433677) scale(1.031762)"/><path fill="#8CB65A" d="M185.121 279.486c.067-.367.379-.716.966-1.15.496-.132.717-.18.938-.227 1.384.025 2.769.049 4.619.075 5.258-.008 10.051-.019 14.843-.031 4.45.023 8.901.046 13.589.04.625-.01 1.011.012 1.79.029.939-.03 1.488-.056 2.037-.082 18.058.042 36.118.104 54.176.117 11.158.009 22.315-.058 33.713-.133-.526.434-1.264 1.255-2.066 1.324-2.202.19-4.43.065-6.648.065-39.236-.004-78.472-.008-117.957-.027Z" style="stroke-width:1" transform="translate(-11.789512 -8.433677) scale(1.031762)"/><path fill="#3B9DB7" d="M235.173 189.887c-1.238.506-2.475 1.013-3.912 1.318-1.443-2.219-1.978-4.07.02-6.122 1-1.028.311-2.08-1.093-2.358 3.992-1.722 6.52-4.745 8.84-8.088 2.487.885 4.814 1.698 7.12 2.715-.595 2.604-1.165 5.004-1.912 7.419-1.111.699-2.045 1.381-3.165 1.998-.993.265-1.803.596-2.707.752-2.13-.328-3.372.69-3.191 2.366Z" style="stroke-width:1" transform="translate(-11.789512 -8.433677) scale(1.031762)"/><path fill="#3C9BB2" d="M313.018 171.578c-.908 2.114-1.817 4.228-2.971 6.911 3.168-1.518 6.346-1.33 7.747-4.89.761-1.934 5.077-1.57 6.546.187 1.189 1.42 2.35 2.864 3.515 4.483-1.913.795-3.818 1.404-6.049 2.051-.583.138-.843.238-1.102.338-1.895-.003-3.789-.007-6.04-.112-1.132-.271-1.907-.44-2.682-.607-.575-.266-1.15-.531-1.93-1.07-1.326-.627-2.447-.979-3.569-1.333 0 0-.059.039-.083-.194.155-3.608 2.15-5.578 5.983-6.019.304.093.47.174.635.255Z" style="stroke-width:1" transform="translate(-11.789512 -8.433677) scale(1.031762)"/><path fill="#3B9DB7" d="M214.451 181.775c1.843-.487 3.656-.809 5.47-1.132-.336-2.124-.709-4.486-.933-6.993 2.616 2.574 5.082 5.292 7.34 8.023-.599.364-1.259.664-1.336 1.073-.482 2.571-.835 5.167-1.23 7.754-3.113-2.853-6.227-5.708-9.311-8.725Z" style="stroke-width:1" transform="translate(-11.789512 -8.433677) scale(1.031762)"/><path fill="#3C9BB2" d="M223.772 190.492c.385-2.579.738-5.175 1.22-7.746.077-.409.737-.709 1.485-1.022.575.261.792.487 1.032.83.324.196.625.276 1.126.316.612-.032 1.022-.025 1.431-.016 1.526.149 2.215 1.201 1.215 2.229-1.998 2.052-1.463 3.903-.217 6.107-1.931.183-3.862.179-6.014-.089-.564-.388-.906-.511-1.249-.635 0 0-.02.016-.029.026Z" style="stroke-width:1" transform="translate(-11.789512 -8.433677) scale(1.031762)"/><path fill="#3B9DB7" d="M312.245 171.313c-3.695.451-5.69 2.421-5.861 5.997-1.835-1.033-3.68-2.267-5.59-3.661 1.926-1.996 3.917-3.831 6.227-5.71 1.953 1.096 3.589 2.235 5.224 3.374Z" style="stroke-width:1" transform="translate(-11.789512 -8.433677) scale(1.031762)"/><path fill="#8CB65A" d="M387.759 278.747c-.5.33-1.1.73-1.71.733-7.883.041-15.77.029-23.656.014-.323-.001-.646-.157-1.087-.54-.047-.461.025-.625.097-.788 3.51.001 7.019.003 10.945.112 5.104.062 9.791.017 14.481-.028.28.127.55.255.93.497Zm-74.47-21.686c.453.457 1.165 1.122 1.059 1.609-.254 1.159-.893 2.235-1.553 3.388-.202-.504-.227-1.052-.16-1.928.109-.762.124-1.197.14-1.632.133-.436.267-.872.514-1.437Z" style="stroke-width:1" transform="translate(-11.789512 -8.433677) scale(1.031762)"/><path fill="#3C9BB2" d="M238.364 187.521c.057.325 0 .468-.097.719-.93.617-1.839 1.122-2.921 1.636-.354-1.665.888-2.683 3.018-2.355Z" style="stroke-width:1" transform="translate(-11.789512 -8.433677) scale(1.031762)"/><path fill="#3B9DB7" d="M306.557 177.695c1.048.195 2.169.547 3.34 1.062-1.057-.192-2.162-.547-3.34-1.062Z" style="stroke-width:1" transform="translate(-11.789512 -8.433677) scale(1.031762)"/><path fill="#8CB65A" d="M312.568 268.178c-.155.117-.369.094-.477.081-.08-.726-.052-1.442.042-2.378.068-.222.279-.23.279-.23.103.803.207 1.606.156 2.527Z" style="stroke-width:1" transform="translate(-11.789512 -8.433677) scale(1.031762)"/><path fill="#F3F7EF" d="M391.569 282.459c-.43-.467-.74-1.035-1.05-1.769.39.447.78 1.058 1.05 1.769Z" style="stroke-width:1" transform="translate(-11.789512 -8.433677) scale(1.031762)"/><path fill="#3B9DB7" d="M223.843 190.616c.301-.026.643.097 1.033.357-.298.022-.644-.093-1.033-.357Z" style="stroke-width:1" transform="translate(-11.789512 -8.433677) scale(1.031762)"/><path fill="#8CB65A" d="M389.809 279.898c-.14.078-.27-.016-.42-.261.09-.03.25.049.42.261Z" style="stroke-width:1" transform="translate(-11.789512 -8.433677) scale(1.031762)"/><path fill="#3B9DB7" d="M305.828 94.469c-1.635-1.767-3.257-3.729-4.932-5.847 2.877-1.105 4.616.779 6.489 2.458-.552 1.143-1.047 2.168-1.557 3.389Zm6.615 15.652c-.997-2.042-1.894-4.261-2.784-6.67.44.267.87.721 1.379 1.261.327-.438.642-.86.976-1.308 3.105 3.732 3.14 4.249.429 6.717Zm-17.381-27.894c-1.964-1.766-3.915-3.756-5.919-5.899 3.119.162 5.936 2.907 5.919 5.899Zm18.401-8.149c-1.836-.766-3.621-1.722-5.498-2.823 1.429-.331 2.947-.633 4.471-.67 1.823-.043 2.184 1.165 1.027 3.493Zm9.117 88.904c-.405-1.218-.72-2.588-.96-4.141.399 1.207.724 2.598.96 4.141Zm-2.138-13.244c-.412-1.085-.712-2.304-.944-3.71.397 1.068.727 2.321.944 3.71Zm1.048 6.643c-.373-.937-.638-2.011-.833-3.226.362.936.651 2.012.833 3.226Zm-4.095-24.587c-.379-.937-.652-2.013-.859-3.232.366.935.666 2.014.859 3.232Zm2.039 11.791c-.374-.921-.64-1.972-.836-3.194.362.908.652 1.986.836 3.194Zm-11.095-43.742c-.554-.818-1.092-1.833-1.593-3.01.562.829 1.084 1.821 1.593 3.01Zm7.97 25.859c-.351-.641-.596-1.39-.772-2.268.338.635.608 1.395.772 2.268Zm1.786 9.911c-.227-.307-.436-.779-.569-1.398.247.313.417.772.569 1.398ZM304.3 69.369c-.267.051-.55-.044-.913-.272.245-.046.571.039.913.272Zm-2.058-.988c-.265.043-.54-.066-.906-.296.24-.033.568.055.906.296Zm12.275 6.663c-.338-.044-.689-.268-1.079-.651.33.052.698.261 1.079.651Zm3.867 62.452c-.183-.178-.274-.439-.294-.787.177.175.281.439.294.787Zm-3.891-19.709c-.214-.185-.414-.524-.546-.997.231.191.396.518.546.997Zm.999 3.627c-.237-.18-.448-.528-.628-1.03.238.184.445.523.628 1.03Zm-6.077-18.409c.007-.012-.062-.032-.033-.002.029.03.027.014.033.002Zm-3.134-7.749c-.118.007-.264-.151-.447-.467.115-.006.267.148.447.467Zm7.184 18.96c-.098-.015-.205-.17-.304-.468.105.014.2.17.304.468Zm.104 1.061c.018.046-.134.069-.134.069s-.012-.168.049-.189c.061-.023.068.075.085.12ZM121.975 86.836c-1.1-.398-2.263-.878-3.337-1.508-3.069-1.802-3.576-4.249-1.468-7.262-.408 1.899-.854 3.637.527 5.257 1.909-1.494 3.659-2.76 5.245-4.205.269-.245-.012-1.746-.299-1.836-1.267-.395-2.628-.487-3.956-.689.479-.248.957-.496 1.594-.804.682.032 1.204.122 2.019.325.569.22.845.329 1.211.556.545.348.999.578 1.455.807.577.457 1.155.914 1.824 1.501-2.023 2.103-4.139 4.076-6.756 6.517.745.461 1.333.826 1.941 1.341Z" style="stroke-width:1" transform="translate(-11.789512 -8.433677) scale(1.031762)"/><path fill="#8CB65A" d="M202.723 473.199c-.275-1.197-.451-2.247-.57-3.488.807 2.178 1.559 4.548 2.217 7.152-.092.234-.294.257-.294.257-.418-1.258-.837-2.515-1.353-3.921Z" style="stroke-width:1" transform="translate(-11.789512 -8.433677) scale(1.031762)"/><path fill="#3B9DB7" d="M238.098 47.323c-1.461-.006-3.05-.147-4.754-.435 1.464.002 3.045.15 4.754.435Zm-8.191-1.024c-1.458-.014-3.043-.167-4.737-.47 1.464.009 3.038.171 4.737.47Zm-10.72-1.421c-1.664-.02-3.416-.186-5.326-.463 1.641.031 3.44.175 5.326.463Zm-39.897-7.519c-1.492-.497-3.033-1.148-4.687-1.946 1.469.502 3.054 1.147 4.687 1.946Zm30.67 6.412c-1.15-.018-2.39-.16-3.779-.41 1.13.025 2.409.156 3.779.41Zm-7.156-.978c-.997-.019-2.075-.165-3.301-.416.975.026 2.098.157 3.301.416Zm49.21 6.359c-.847.058-1.747-.042-2.75-.299.832-.059 1.764.04 2.75.299Zm-60.978-8.392c-.837-.04-1.747-.209-2.789-.491.817.046 1.767.204 2.789.491Zm68.11 9.712c-.948-.098-1.98-.333-3.129-.713.937.096 1.991.336 3.129.713Zm-14.824-2.395c-.842.092-1.744.032-2.778-.163.818-.086 1.767-.038 2.778.163Zm3.557.359c-.652.138-1.384.147-2.267.057.629-.128 1.408-.156 2.267-.057Zm16.939 4.241c-.629-.149-1.31-.45-2.093-.886.614.155 1.327.445 2.093.886Zm-68.157-10.873c-.44.056-.96-.028-1.589-.246.43-.055.969.025 1.589.246Zm25.63 3.559c-.349.122-.759.133-1.285.035.331-.121.778-.134 1.285-.035Zm38.968 5.773c-.231.059-.494.012-.832-.154.215-.064.508-.008.832.154Zm-77.863-12.359c-.227.087-.492.078-.836-.05.213-.098.505-.072.836.05Zm10.736 2.465c-.214.13-.491.147-.846.081.21-.121.495-.157.846-.081Zm-8.674-1.829c-.236.071-.502.025-.856-.134.218-.071.522-.025.856.134Zm69.098 9.997c-.206.133-.478.158-.83.103.201-.122.482-.166.83-.103Zm-81.938-15.257c-.281.02-.621-.077-1.011-.318.284-.025.617.087 1.011.318Zm94.199 19.52c-.127.044-.315-.084-.599-.357.116-.034.326.075.599.357Zm-93.252-18.865c.039.031-.088.118-.088.118s-.117-.102-.112-.179c.004-.077.16.036.2.061Z" style="stroke-width:1" transform="translate(-11.789512 -8.433677) scale(1.031762)"/><path fill="#3C9BB2" d="M276.965 54.686c-.202.123-.403.122-.603.107-.006-.001.001-.156.002-.239.201.002.401.004.601.132Z" style="stroke-width:1" transform="translate(-11.789512 -8.433677) scale(1.031762)"/><path fill="#F8FAF7" d="M263.622 347.374c2.012-3.866 3.77-7.661 5.855-11.267 5.773-9.99 15.602-13.347 25.215-8.682 4.409 2.139 7.178 5.877 9.447 10.085 2.021 3.748 4.148 7.441 6.256 11.142.277.487.723.876 1.37 1.639 1.058-1.722 1.943-3.217 2.882-4.677 1.621-2.522 3.827-3.25 6.309-2.127 2.298 1.041 2.926 2.761 1.873 5.845-1.902 5.562-3.867 11.105-5.896 16.624-1.037 2.817-2.45 3.548-5.373 2.936-5.42-1.136-10.832-2.308-16.237-3.511-3.2-.713-4.465-2.156-4.322-4.754.14-2.545 1.604-3.875 4.804-4.3 1.595-.213 3.199-.355 5.187-.57-.33-.916-.502-1.717-.881-2.401-2.521-4.546-4.917-9.172-7.683-13.565-3.429-5.446-10.113-4.975-13.133.761-3.652 6.938-7.291 13.884-10.921 20.833-1.774 3.393-4.313 4.513-7.26 3.162-2.928-1.341-4.103-4.487-2.561-7.8 1.468-3.158 3.295-6.15 5.069-9.373Zm68.007 59.049c-3.646-5.985-7.195-11.809-10.693-17.664-1.238-2.071-1.795-4.317-.519-6.558 2.124-3.728 7.008-3.589 9.379.252 2.548 4.13 5.024 8.305 7.526 12.464 1.316 2.19 2.612 4.392 3.929 6.582 8.355 13.887 1.013 27.409-15.169 27.86-5.201.144-10.406.108-15.608.152-.83.008-1.661.001-3.089.001.681 1.131 1.177 1.765 1.468 2.481.598 1.468 1.479 2.967 1.539 4.48.138 3.433-3.422 5.311-6.28 3.435-1.053-.691-2.001-1.6-2.835-2.55-3.202-3.654-6.362-7.343-9.488-11.06-2.239-2.663-2.276-4.118.034-6.73 3.611-4.082 7.318-8.081 11.024-12.079 2.024-2.185 4.252-2.576 6.082-1.19 2.123 1.609 2.717 4.84 1.256 7.137-.939 1.475-1.963 2.895-3.334 4.903 1.67 0 2.726.001 3.784 0 4.777-.005 9.555-.077 14.33.007 3.295.059 6.408-.259 8.225-3.444 1.764-3.092.09-5.733-1.561-8.479Z" style="stroke-width:1" transform="translate(-11.789512 -8.433677) scale(1.031762)"/><path fill="#F9FAF7" d="M236.277 397.391c1.915-3.171 3.745-6.176 5.573-9.179-.17-.25-.34-.5-.511-.75-1.664 0-3.331.062-4.992-.014-2.74-.126-4.464-1.704-4.662-4.146-.193-2.391 1.071-4.038 3.804-4.618 5.67-1.199 11.349-2.367 17.048-3.411 2.973-.544 4.597.487 5.493 3.256 1.786 5.517 3.46 11.07 5.266 16.58.736 2.248.378 4.065-1.661 5.34-1.764 1.105-4.449.465-5.939-1.384-.692-.859-1.23-1.841-1.834-2.769-.588-.905-1.171-1.813-2.028-3.137-1.811 2.858-3.405 5.339-4.966 7.842-1.442 2.315-2.872 4.638-4.258 6.986-.605 1.025-1.214 2.078-1.6 3.195-1.745 5.046.84 8.765 6.159 8.77 7.939.007 15.878-.085 23.816-.165 2.147-.021 3.937.608 4.771 2.709.867 2.181.937 4.443-.912 6.167-.788.736-2.046 1.318-3.111 1.353-8.613.294-17.237.294-25.844.676-7.577.336-15.019-7.649-15.885-14.433-.78-6.107 1.609-10.962 4.508-15.84.565-.951 1.119-1.908 1.765-3.028Z" style="stroke-width:1" transform="translate(-11.789512 -8.433677) scale(1.031762)"/><path fill="#8CB65A" d="M321.431 254.449c-.546 3.244-1.266 6.531-1.985 9.818.289.152.578.303.867.455 1.011-1.335 2.086-2.628 3.018-4.016 3.988-5.935 9.304-10.553 14.826-14.954.74-.588 2.006-1.186 2.758-.943 1.318.425 2.941 1.255 3.47 2.372.455.964-.028 2.93-.814 3.808-1.684 1.877-3.911 3.255-5.779 4.984-6.47 5.989-11.991 12.739-16.311 20.648 1.278-3.682-.132-6.688-2.568-9.565-1.42-1.677-.889-5.85.309-7.744.92-1.455 1.375-3.203 2.209-4.863ZM192.5 379.109c-.522-2.459-1.033-5.074-1.359-7.714-.539-4.353-.959-8.722-1.379-13.307.41.827.978 1.856 1.094 2.933.64 5.967 1.17 11.945 1.644 18.088Zm7.587 69.217c-.791-4.979-1.457-10.114-2.062-15.466.399 1.021.902 2.241 1.048 3.502.452 3.928.769 7.871 1.014 11.964Zm-16.998-149.351c-.107-.744-.216-1.488-.359-2.637-.134-1.955-.233-3.505-.332-5.054 0 0 .159.031.241.045.388.983.865 1.933.975 2.924.314 2.815.478 5.647.574 8.624-.266.086-.356-.019-.443-.417-.089-.477-.134-.702-.179-.925-.062-.432-.124-.862-.257-1.599-.121-.522-.17-.742-.22-.961Zm137.64-19.139c4.231-.177 8.535-.167 13.071-.088.142.212.051.477-.037.476-4.32-.053-8.64-.128-13.034-.388Zm-124.69 132.6c-.458-2.57-.807-5.301-1.092-8.254.443 2.549.822 5.32 1.092 8.254Zm-8.293-75.734c-.461-2.427-.788-5-1.066-7.803.431 2.399.815 5.027 1.066 7.803Zm-2.55-25.106c-.452-2.083-.773-4.318-1.036-6.777.429 2.06.799 4.343 1.036 6.777Zm15.88 144.949c-.465-2.082-.799-4.315-1.079-6.773.438 2.057.824 4.34 1.079 6.773Zm-3.551-30.241c-.467-2.417-.814-4.987-1.103-7.779.447 2.393.836 5.009 1.103 7.779ZM186.75 326.95c-.424-2.085-.721-4.326-.944-6.776.406 2.067.739 4.344.944 6.776Zm2.017 19.49c-.46-2.265-.789-4.671-1.057-7.302.437 2.237.813 4.698 1.057 7.302Zm1.03 9.212c-.456-2.09-.777-4.327-1.045-6.786.429 2.065.803 4.351 1.045 6.786Zm12.28 111.152c-.425-2.097-.713-4.338-.931-6.797.403 2.074.735 4.363.931 6.797Zm134.622-187.155c1.639-.783 3.395-1.427 5.337-2.08-1.067 2.066-3.176 2.062-5.337 2.08Zm-153.984 9.873c-.315-1.212-.52-2.582-.665-4.168.299 1.192.537 2.601.665 4.168Zm11.761 107.581c-.304-.894-.497-1.932-.638-3.178.283.873.516 1.952.638 3.178Zm-.989-9.245c-.301-.883-.502-1.916-.646-3.154.287.865.517 1.934.646 3.154Zm-7.713-70.661c-.265-.084-.421-.31-.626-.673-.039-.855-.027-1.576.05-2.502.273.873.48 1.952.576 3.175Zm10.723 99.901c-.279-.905-.442-1.953-.541-3.203.262.885.46 1.972.541 3.203ZM182.322 283.06c.3-.838.753-1.726 1.37-2.687-.296.831-.757 1.733-1.37 2.687Zm22.845 196.137c-.167-.393-.335-.784-.468-1.33.626.705 1.214 1.564 1.806 2.598-.26-.062-.521-.299-.915-.728-.179-.35-.277-.465-.423-.54Zm-10.245-77.436c-.265-.759-.407-1.65-.478-2.73.247.738.423 1.668.478 2.73Zm3.099 29.189c-.252-.599-.391-1.321-.459-2.224.24.581.406 1.341.459 2.224Zm-4.168-39.376c-.204-.324-.296-.735-.322-1.294.19.303.312.755.322 1.294Zm118.903-118.746c-.219-.355-.275-.74-.291-1.319.178.301.316.793.291 1.319Zm9.723-20.937c.019.354-.142.751-.443 1.237-.006-.339.129-.767.443-1.237Zm-2.1 26.615c.169.211.203.452.211.876-.133-.161-.239-.503-.211-.876ZM192.812 382.379c-.177-.193-.256-.45-.267-.829.167.172.266.469.267.829Z" style="stroke-width:1" transform="translate(-11.789512 -8.433677) scale(1.031762)"/><path fill="#3B9DB7" d="M137.657 95.441c-.179-.045-.075-.23-.004-.312 2.142.837 4.215 1.753 6.324 2.844-2.022-.712-4.081-1.6-6.32-2.532Zm8.245 3.914c.049 0 .039.012.042.003.002-.01-.092-.004-.042-.003Zm53.421 54.395c3.165 2.933 6.368 6.024 9.543 9.144 1.382 1.36 2.708 2.777 4.114 4.326-.79.146-1.635.127-2.479.124-3.771-.01-5.807-1.276-5.88-4.987-.059-2.953-1.688-4.388-3.346-6.131-.688-.725-1.287-1.534-1.952-2.476Zm-10.755-10.174c2.526 2.214 5.092 4.615 7.731 7.174-2.021-.807-4.343-1.474-6.114-2.851-.996-.773-1.081-2.718-1.617-4.323Zm-45.035-55.769c2.731 1.344 5.505 2.844 8.372 4.504-1.104-.269-2.386-.543-3.479-1.156-1.685-.942-3.24-2.115-4.893-3.348Zm-15.881-8.203c1.846.849 3.732 1.851 5.724 3.002-.556.447-1.216.745-2.048 1.122-1.186-1.295-2.41-2.632-3.676-4.124Zm26.126 13.849c2.169 1.188 4.381 2.532 6.671 4.029-2.157-1.189-4.391-2.531-6.671-4.029Zm-26.146-3.75c-.967-.334-1.943-.865-3.027-1.52.559-.576 1.227-1.029 1.895-1.481.374.934.749 1.868 1.132 3.001Zm9.687 4.933c-1.667-.644-3.42-1.425-5.282-2.351 1.658.64 3.428 1.427 5.282 2.351Zm-1.979-10.925c1.003.331 2.049.823 3.204 1.459-.981-.335-2.07-.817-3.204-1.459Zm-3.705 8.195c-.866-.32-1.804-.792-2.838-1.411.858.321 1.811.791 2.838 1.411Zm34.97 14.39c.389.485.763 1.152 1.095 1.979-.399-.492-.754-1.144-1.095-1.979Zm15.852 30.371c.437.282.871.743 1.335 1.36-.425-.29-.881-.736-1.335-1.36Zm-41.988-50.395c.328-.009.706.144 1.168.436-.317.002-.718-.137-1.168-.436Zm38.403 45.26c.268.12.535.402.81.833-.266-.125-.539-.398-.81-.833Zm-13.303-27.746c.252.151.491.463.706.921-.255-.155-.486-.457-.706-.921Zm12.275 26.218c.257.121.512.4.777.826-.253-.124-.515-.396-.777-.826Zm-3.065-5.157c.266.127.526.418.785.858-.263-.131-.527-.413-.785-.858Zm-3.064-6.202c.235.153.459.462.655.917-.241-.157-.454-.459-.655-.917Z" style="stroke-width:1" transform="translate(-11.789512 -8.433677) scale(1.031762)"/><path fill="#D9EFF1" d="M203.279 170.332c-.119.07-.231-.012-.358-.229.124-.099.252-.028.358.229Zm-4.091-4.099c-.117.073-.232-.006-.363-.221.122-.101.249-.032.363.221Z" style="stroke-width:1" transform="translate(-11.789512 -8.433677) scale(1.031762)"/><path fill="#8EB35F" d="M255.582 157.223c-1.555-.168-3.659.176-3.668-2.129-.009-2.114-1.941-4.766 1.588-6.218.805.807 1.26 1.543 1.664 2.488-.384 1.985.437 2.423 2.086 2.267 6.087-.572 12.179-1.087 18.273-1.571 2.766-.22 2.959-.459 2.133-3.51.18-1.005.351-1.824.523-2.644 2.896.472 3.151.95 3.468 5.377.141 1.961-.442 3.153-2.746 3.291-1.299.218-2.397.41-3.627.722-5.317.515-10.502.911-16.122 1.317-1.48.21-2.525.411-3.572.61Z" style="stroke-width:1" transform="translate(-11.789512 -8.433677) scale(1.031762)"/><path fill="#3C9BB2" d="M244.236 184.771c.235 1.351.296 2.718.343 4.312-.903.25-1.793.275-2.903.314-.3-.701-.381-1.417-.441-2.348.956-.897 1.89-1.579 3.001-2.278Zm1.324 9.144c.659.882 1.115 1.794 1.622 2.879-.965-.221-1.979-.616-2.993-1.01.389-.613.779-1.226 1.371-1.869Z" style="stroke-width:1" transform="translate(-11.789512 -8.433677) scale(1.031762)"/><path fill="#3B9DB7" d="M278.708 122.061c-3.596-2.737-7.191-5.679-10.657-8.791 1.239.325 2.283 1.09 3.484-.16.396-.412 1.244-.55 1.88-.54 2.443.039 2.515-1.331 1.632-2.921-.585-1.049-1.655-1.824-2.482-2.745-.706-.786-1.375-1.606-2.06-2.411 4.371 3.615 8.742 7.23 13.178 10.999-3.49.745-4.345 1.799-4.975 6.569Zm13.382 4.75c.897 2.151 1.787 4.517 2.629 7.061-.913-2.162-1.776-4.503-2.629-7.061Zm-7.226-9.978c1.282 1.075 2.585 2.326 3.9 3.74-1.286-1.08-2.582-2.323-3.9-3.74Zm8.929 47.262c-.605-.936-1.108-1.988-1.615-3.224.569.913 1.143 2.011 1.615 3.224Zm2.596-21.671c.395.931.677 1.988.888 3.219-.381-.914-.69-2.003-.888-3.219Zm5.937 19.27c.597.621 1.186 1.434 1.787 2.413-.59-.631-1.194-1.425-1.787-2.413Zm-2.556-5.195c.389.482.764 1.147 1.116 1.972-.393-.489-.761-1.139-1.116-1.972Zm-3.134 12.173c-.484-.392-.972-.966-1.456-1.707.487.397.969.962 1.456 1.707Zm-7.634-47.427c.429.29.85.758 1.278 1.383-.424-.296-.855-.751-1.278-1.383Zm8.37 26.301c.234.286.379.669.46 1.203-.226-.269-.387-.686-.46-1.203Zm.525 2.557c.245.283.397.664.498 1.203-.23-.262-.411-.682-.498-1.203Zm-2.774 16.452c-.314-.208-.645-.584-.987-1.117.316.21.643.579.987 1.117Zm3.375-13.953c.237.158.373.396.48.772-.213-.137-.396-.415-.48-.772Zm-2.66-13.264c.189.165.295.418.333.762-.184-.163-.299-.418-.333-.762Zm-.511-2.062c.182.158.291.389.337.74-.179-.142-.294-.404-.337-.74Zm-.448-2.083c.187.172.287.413.326.777-.179-.154-.295-.431-.326-.777Zm-11.049-19.351c.286.066.603.288.961.655-.283-.069-.605-.285-.961-.655Zm-4.124 7.295c-.294-.079-.607-.322-.958-.717.288.084.613.318.958.717Z" style="stroke-width:1" transform="translate(-11.789512 -8.433677) scale(1.031762)"/><path fill="#3C9BB2" d="M247.079 163.756c.102.229.203.458.17 1.017-.335 1.129-.42 1.982-.756 2.719-1.08 2.374-.968 4.484 1.104 6.278-.392 1.055-.784 2.111-1.301 3.273-2.454-.708-4.781-1.521-7.268-2.406-.122-.326-.082-.58.165-1.036.212-.497.212-.79.212-1.083-.011-1.591-.022-3.182.078-5.079.001-.572-.111-.839-.223-1.107-.229-.615-.458-1.23-.59-2.235 2.22-3.081 1.854-4.664-1.082-5.21-.607-.113-1.29.177-1.938.281 0 0 .032-.016.014-.156-.292-.389-.567-.637-.842-.886-.397-.507-.794-1.014-1.215-1.871-.574-.961-1.123-1.573-1.672-2.184-.407-.486-.813-.973-1.3-1.764-.406-.654-.73-1.003-1.056-1.353-.18-.189-.361-.378-.563-.932-.008-1.304-.082-2.252.036-3.176.462-3.638 2.459-4.891 5.599-3.573.174.203.348.405.545.917.328.589.633.868.938 1.146 1.212 1.499 2.424 2.998 3.701 4.83.235.473.406.613.576.755.301.385.601.771.911 1.527-.052.868-.195 1.37-.161 1.86.086 1.256.251 2.505.383 3.756.971-.159 1.942-.318 2.912-.478.791 1.612 1.582 3.224 2.28 5.094.052.53.197.803.343 1.076Z" style="stroke-width:1" transform="translate(-11.789512 -8.433677) scale(1.031762)"/><path fill="#3B9DB7" d="M227.509 182.554c.238-.037.5.044.843.24-.218.036-.519-.044-.843-.24Z" style="stroke-width:1" transform="translate(-11.789512 -8.433677) scale(1.031762)"/><path fill="#3C9BB2" d="M227.911 125.819c.698 3.471 1.396 6.943 1.97 10.708-.848 1.113-1.422 2.266-2.332 2.68-1.631.741-3.464 1.037-5.213 1.52 0 0 .028-.016.023-.187-.453-.91-.903-1.649-1.352-2.388-.209-.408-.416-.814-.511-1.49-.18-.875-.473-1.482-.765-2.088-.126-.558-.252-1.116-.261-1.957.007-.561-.102-.839-.211-1.116-.132-.735-.265-1.469-.254-2.522.081-.717.02-1.116-.043-1.514.017-.749.034-1.497.271-2.499.229-.701.239-1.149.248-1.596.015-.259.029-.519.286-1.021.494-1.113.742-1.985.992-2.857.035-.338.07-.677.35-1.216.723-1.466 1.202-2.731 1.68-3.998 0 0-.035-.11.168-.227.61-.94 1.017-1.764 1.424-2.588 0 0 .024.043.189.059.727.494 1.483.863 1.812 1.466 1.166 2.134 2.187 4.348 3.262 6.532-.22.825-.44 1.649-.932 2.671-.449 1.341-.625 2.484-.801 3.628Z" style="stroke-width:1" transform="translate(-11.789512 -8.433677) scale(1.031762)"/><path fill="#3B9DB7" d="M246.348 105.169c-3.276 1.906-6.552 3.811-9.971 5.565.674-1.265 1.492-2.378 2.31-3.493-.186-.827-1.028-2.063-1.727-3.375-.797-1.49-1.822-2.299-3.568-1.678 7.251-4.983 15.031-7.42 23.722-4.75-4.58-.338-9.048-.769-12.942.373.767 2.595 1.471 4.976 2.176 7.358Z" style="stroke-width:1" transform="translate(-11.789512 -8.433677) scale(1.031762)"/><path fill="#3C9BB2" d="M246.54 105.202c-.897-2.415-1.601-4.796-2.368-7.391 3.894-1.142 8.362-.711 13.077-.235.404-.121.569-.127.91.163.251.547.494 1.059.38 1.159-2.102 1.819-2.446 4.209-2.301 6.776-.256-.002-.511-.005-.974-.211-.504-.205-.801-.205-1.099-.207-.573-.023-1.145-.046-1.996-.315-1.751-.138-3.224-.029-4.697.079-.247.072-.493.143-.932.182Zm23.91-.793c.74.889 1.409 1.709 2.115 2.495.827.921 1.897 1.696 2.482 2.745.883 1.59.811 2.96-1.632 2.921-.636-.01-1.484.128-1.88.54-1.201 1.25-2.245.485-3.545-.003-.44-.123-.69-.252-1.02-.689-.915-.852-1.748-1.395-2.581-1.938 0 0-.028.008-.084-.113-.164-.253-.301-.341-.467-.383 0 0 .014-.006-.012-.173-.392-.363-.757-.56-1.121-.756 0 0 .075-.027.08-.209.636-4.518 2.897-5.856 7.414-4.568 0 0 .197.046.251.131Z" style="stroke-width:1" transform="translate(-11.789512 -8.433677) scale(1.031762)"/><path fill="#3B9DB7" d="M270.122 104.116c-4.44-1.126-6.701.212-7.364 4.759-2.124-.828-4.216-1.867-6.414-3.054-.251-2.714.093-5.104 2.195-6.923.114-.1-.129-.612-.271-1.092 4.563.664 8.189 3.371 11.854 6.31Zm-47.757 36.791c1.72-.663 3.553-.959 5.184-1.7.91-.414 1.484-1.567 2.348-2.488 1.652 2.003 3.165 4.109 4.716 6.384-3.102-1.148-5.099.105-5.561 3.743-.118.924-.044 1.872-.078 3.051-2.207-2.776-4.393-5.794-6.609-8.99Zm7.433-21.487c-1.229-2.084-2.25-4.298-3.416-6.432-.329-.603-1.085-.972-1.833-1.477 1.108-1.787 2.401-3.545 3.836-5.177.961 3.814 4.315 4.125 7.03 5.29-1.822 2.565-3.642 5.13-5.617 7.796Z" style="stroke-width:1" transform="translate(-11.789512 -8.433677) scale(1.031762)"/><path fill="#3C9BB2" d="M235.549 111.592c-2.849-1.133-6.203-1.444-7.012-5.314.367-.566.723-.952 1.406-1.406.593-.396.858-.725 1.125-1.053.183-.176.366-.352.86-.541.604-.316.898-.62 1.192-.923 0 0 .103-.139.187-.152 1.831-.636 2.856.173 3.653 1.663.699 1.312 1.541 2.548 1.727 3.375-.818 1.115-1.636 2.228-2.482 3.516-.192.384-.357.595-.656.835Z" style="stroke-width:1" transform="translate(-11.789512 -8.433677) scale(1.031762)"/><path fill="#3B9DB7" d="M235.679 159.348c.619-.284 1.302-.574 1.909-.461 2.936.546 3.302 2.129 1.089 5.011-1.05-1.33-2.01-2.85-2.998-4.55Zm-13.037-44.96c-.331 1.157-.81 2.422-1.452 3.738.326-1.178.815-2.403 1.452-3.738Zm-1.64 23.937c.454.566.904 1.305 1.35 2.23-.453-.562-.903-1.309-1.35-2.23Zm-.378-18.722c-.115.761-.363 1.633-.75 2.581.115-.772.365-1.621.75-2.581Zm3.604-8.064c-.254.748-.661 1.572-1.228 2.472.252-.747.664-1.573 1.228-2.472Zm-4.554 23.183c.349.458.642 1.065.83 1.764-.367-.477-.628-1.046-.83-1.764Zm12.309 19.519c.501.441 1.05 1.053 1.588 1.856-.52-.433-1.029-1.059-1.588-1.856Zm-13.118-26.685c.16.307.221.706.193 1.201-.157-.307-.223-.709-.193-1.201Zm.501-4.074c.106.335.096.783-.025 1.285-.105-.354-.097-.764.025-1.285Zm10.229 27.622c.31.2.634.549.964 1.062-.312-.196-.63-.554-.964-1.062Zm3.367-48.725c-.136.279-.43.583-.905.878.128-.289.438-.571.905-.878Zm-13.772 29.242c.178.157.287.435.309.779-.184-.175-.282-.417-.309-.779Zm20.006 34.832c.176.147.288.414.323.751-.181-.165-.284-.397-.323-.751Zm.108 6.157c.101.201.101.494 0 .83-.1-.217-.1-.478 0-.83Zm-4.477-14.338c.27.103.545.351.827.754-.269-.099-.547-.354-.827-.754Zm-3.914-54.417c-.112.292-.377.621-.822.952.103-.304.386-.61.822-.952Z" style="stroke-width:1" transform="translate(-11.789512 -8.433677) scale(1.031762)"/><path fill="#3C9BB2" d="M118.534 76.619c1.481.176 2.842.268 4.109.663.287.09.568 1.591.299 1.836-1.586 1.445-3.336 2.711-5.245 4.205-1.381-1.62-.935-3.358-.358-5.306.369-.588.705-.98 1.195-1.398Z" style="stroke-width:1" transform="translate(-11.789512 -8.433677) scale(1.031762)"/><path fill="#8FB75B" d="M285.93 199.659c1.281-1.605 2.363-3.157 3.684-4.47.517-.514 1.569-.49 2.378-.711.03.924.434 2.091.021 2.727-1.385 2.131-3.065 4.07-4.627 6.087-2.173 2.802-4.342 5.607-6.791 8.772 2.528.761 4.603 1.379 6.675 2.012 1.261.385 2.619.824 2.2 2.535-.46 1.875-1.9.974-2.935.731-2.815-.662-5.62-1.383-8.392-2.207-2.851-.846-3.075-1.731-1.191-4.119 2.952-3.741 5.916-7.473 8.978-11.357Zm-30.625-12.495c-1.088-.338-2.133-.424-2.827-.962-.726-.564-1.114-1.563-1.651-2.37.861-.308 1.812-1.018 2.568-.849 2.73.608 5.387 1.539 8.086 2.298 4.414 1.241 8.847 2.421 13.254 3.688.693.199 1.429.605 1.886 1.137.288.335.331 1.369.067 1.587-.506.42-1.369.77-1.978.643-2.49-.523-4.947-1.217-7.407-1.882-3.937-1.065-7.867-2.157-11.998-3.29Zm37.98 38.902c.518 2.269-.609 2.818-2.383 2.531-6.818-1.104-13.638-2.203-20.431-3.448-.738-.135-1.306-1.201-1.952-1.836.717-.538 1.515-1.623 2.139-1.53 7.249 1.073 14.472 2.318 21.697 3.546.3.05.554.37.93.737Z" style="stroke-width:1" transform="translate(-11.789512 -8.433677) scale(1.031762)"/><path fill="#3C9BB2" d="M258.245 198.001c-.242-.009-.485-.018-.918-.24-.504-.235-.816-.258-1.128-.281-.58-.086-1.334.023-1.7-.303-.546-.486-1.212-1.362-1.094-1.918.113-.53 1.262-1.323 1.782-1.209 5.05 1.107 10.086 2.299 15.073 3.657 1.53.417 1.513 1.727.522 2.825-.966 1.069-2.057 2.023-3.438 3.091-.874-.758-1.403-1.58-1.931-2.402-.326-.525-.538-1.332-1-1.518-1.208-.488-2.525-.705-4.006-1.286-.859-.308-1.51-.362-2.162-.416Z" style="stroke-width:1" transform="translate(-11.789512 -8.433677) scale(1.031762)"/><path fill="#3B9DB7" d="M247.738 173.662c-2.213-1.686-2.325-3.796-1.245-6.17.336-.737.421-1.59.746-2.528.374.475.626 1.088 1.12 2.297 2.59-2.711 5.005-5.238 7.695-7.938 1.19-.173 2.105-.173 3.019-.172.421 2.352-1.097 3.716-2.534 5.197-2.932 3.026-5.778 6.134-8.801 9.314Z" style="stroke-width:1" transform="translate(-11.789512 -8.433677) scale(1.031762)"/><path fill="#3F9EB6" d="M265.256 201.281c.685.762 1.214 1.584 1.927 2.406-2.136 2.477-4.372 5.044-6.838 7.369-.536.506-1.891.143-2.869.18.124-.9-.077-2.096.426-2.649 2.291-2.514 4.779-4.848 7.354-7.306Z" style="stroke-width:1" transform="translate(-11.789512 -8.433677) scale(1.031762)"/><path fill="#3C9BB2" d="M259.122 158.949c-.963.201-1.878.201-2.986.204-.293-.514-.395-1.029-.525-1.737 1.018-.392 2.063-.593 3.309-.762.217.717.235 1.404.202 2.295Z" style="stroke-width:1" transform="translate(-11.789512 -8.433677) scale(1.031762)"/><path fill="#3F9EB6" d="M258.387 198.109c.51-.054 1.161 0 1.846.216-.546.073-1.126-.019-1.846-.216Zm-2.093-.526c.217-.08.529-.057.872.086-.238.086-.508.052-.872-.086Zm-1.076-46.428c-.456-.736-.911-1.472-1.516-2.323-.294-2.402-.468-4.686-.579-6.973-.13-2.718.772-3.84 3.376-4.101 5.512-.555 11.026-1.102 16.546-1.563 3.367-.282 4.219.509 4.577 3.909.187 1.78.342 3.565.536 5.575-.149 1.047-.32 1.866-.712 2.912-7.557 1.004-14.893 1.783-22.228 2.564m14.148-7.197c-2.071.45-4.141.903-6.212 1.35-2.01.435-4.022.867-6.034 1.3.071.33.143.661.215.991 5.172-.497 10.351-.95 15.517-1.51 2.513-.272 2.716-.869 1.337-3.305-1.456.358-2.932.723-4.823 1.174m-3.167-2.655c.675-.187 1.351-.375 2.026-.562-3.523-.325-6.9-.228-10.259.065-.581.051-1.087.937-1.629 1.436.673.313 1.411.984 2.008.876 2.503-.454 4.965-1.14 7.854-1.815Z" style="stroke-width:1" transform="translate(-11.789512 -8.433677) scale(1.031762)"/><path fill="#3B9DB7" d="M244.424 157.406c-.938.34-1.909.499-2.88.658-.132-1.251-.297-2.5-.383-3.756-.034-.49.109-.992.183-1.712 1.025 1.396 2.035 3.013 3.08 4.81Zm3.269-52.319c1.252-.175 2.725-.284 4.28-.24-1.298.205-2.678.256-4.28.24Zm-19.665 20.593c.059-1.005.235-2.148.561-3.347-.047 1.032-.245 2.121-.561 3.347Zm36.42-15.044c.774.387 1.607.93 2.471 1.646-.783-.381-1.599-.935-2.471-1.646Zm-28.34 34.544c-.279-.122-.584-.401-.889-.854.288.117.576.407.889.854Zm11.022 18.444c-.197-.141-.342-.414-.401-.761.209.161.331.395.401.761Zm15.628-54.42c.311.047.676.244 1.065.614-.323-.04-.668-.253-1.065-.614Zm-8.499-3.846c.204-.1.501-.1.839.007-.222.101-.483.099-.839-.007Zm9.63 4.742c.115-.074.252.014.421.253-.12.091-.263.01-.421-.253Zm-23.535 40.666c-.113.013-.284-.127-.49-.437.12-.019.278.131.49.437Z" style="stroke-width:1" transform="translate(-11.789512 -8.433677) scale(1.031762)"/><path fill="#D9EFF1" d="M269.573 143.915c1.684-.408 3.16-.773 4.616-1.131 1.379 2.436 1.176 3.033-1.337 3.305-5.166.56-10.345 1.013-15.517 1.51-.072-.33-.144-.661-.215-.991 2.012-.433 4.024-.865 6.034-1.3 2.071-.447 4.141-.9 6.419-1.393Zm-3.579-2.575c-2.684.638-5.146 1.324-7.649 1.778-.597.108-1.335-.563-2.008-.876.542-.499 1.048-1.385 1.629-1.436 3.359-.293 6.736-.39 10.259-.065-.675.187-1.351.375-2.231.599Z" style="stroke-width:1" transform="translate(-11.789512 -8.433677) scale(1.031762)"/></svg>